<?xml version="1.0" standalone="no"?>
<!DOCTYPE svg PUBLIC "-//W3C//DTD SVG 20010904//EN"
 "http://www.w3.org/TR/2001/REC-SVG-20010904/DTD/svg10.dtd">
<svg version="1.0" xmlns="http://www.w3.org/2000/svg"
 width="265.000000pt" height="265.000000pt" viewBox="0 0 265.000000 265.000000"
 preserveAspectRatio="xMidYMid meet">
<metadata>
Created by potrace 1.14, written by Peter Selinger 2001-2017
</metadata>
<g transform="translate(0.000000,265.000000) scale(0.100000,-0.100000)"
fill="#000000" stroke="none">
<path d="M1172 2271 c-132 -36 -198 -74 -291 -164 -51 -49 -131 -159 -131
-180 0 -5 8 -6 18 -2 9 3 55 11 102 16 79 9 88 12 125 48 116 111 279 155 440
117 201 -48 345 -234 345 -447 0 -51 -7 -95 -21 -135 -11 -32 -23 -66 -25 -75
-6 -18 83 -129 101 -125 10 2 87 148 81 154 -2 2 3 24 10 49 18 58 17 189 0
272 -42 194 -198 378 -380 446 -84 32 -104 35 -211 41 -69 3 -107 0 -163 -15z"/>
<path d="M845 1883 c-49 -7 -112 -20 -140 -29 -160 -51 -315 -213 -377 -393
-33 -96 -33 -286 0 -382 44 -128 120 -231 235 -318 84 -63 102 -66 92 -13 -4
20 -11 65 -14 99 -6 56 -11 67 -50 105 -49 50 -94 137 -117 228 -14 56 -15 76
-4 145 17 112 55 189 131 267 93 95 173 131 302 136 87 4 106 1 173 -22 84
-30 73 -33 151 40 l44 42 -28 20 c-34 24 -152 67 -212 77 -70 12 -91 11 -186
-2z"/>
<path d="M1565 1875 c-75 -16 -142 -45 -203 -87 -57 -39 -372 -347 -372 -364
0 -14 66 -95 87 -108 11 -6 55 32 176 153 89 88 177 172 196 186 45 32 175 75
230 75 42 0 43 1 36 28 -3 15 -17 51 -30 80 -27 58 -27 58 -120 37z"/>
<path d="M1974 1825 c3 -8 8 -46 11 -83 9 -100 11 -105 60 -158 211 -227 137
-604 -144 -738 -60 -28 -76 -31 -171 -33 -84 -2 -116 2 -160 18 -94 34 -90 35
-148 -25 -30 -30 -51 -59 -48 -64 12 -20 145 -75 211 -87 102 -18 263 -6 350
28 159 60 313 225 368 392 27 83 36 191 22 291 -22 166 -122 323 -269 422 -83
56 -91 60 -82 37z"/>
<path d="M788 1655 c-68 -25 -88 -44 -88 -84 0 -62 59 -207 114 -281 43 -57
335 -350 348 -350 17 0 108 79 108 93 0 6 -71 83 -158 171 -196 199 -249 284
-255 411 -2 61 -6 63 -69 40z"/>
<path d="M1410 1550 c-25 -28 -47 -53 -50 -56 -3 -3 4 -12 14 -20 42 -30 270
-261 312 -315 54 -70 83 -143 91 -226 7 -75 11 -76 101 -33 l64 30 -7 42 c-16
104 -60 204 -126 288 -61 77 -324 340 -341 340 -7 0 -33 -23 -58 -50z"/>
<path d="M1380 1064 c-91 -91 -183 -177 -206 -190 -32 -19 -150 -66 -161 -64
-2 0 -23 0 -48 0 -42 0 -45 -2 -45 -27 0 -16 11 -52 25 -80 23 -50 26 -53 62
-53 77 0 193 46 288 116 70 50 359 338 354 352 -6 14 -92 112 -99 112 -3 0
-80 -75 -170 -166z"/>
<path d="M761 1163 c-49 -100 -65 -168 -65 -283 0 -213 86 -382 259 -510 248
-183 580 -156 801 64 56 57 131 163 121 173 -4 3 -32 1 -63 -6 -32 -6 -73 -11
-93 -11 -29 0 -47 -10 -90 -50 -218 -198 -553 -153 -708 95 -73 117 -89 280
-41 405 l25 66 -53 57 c-29 31 -56 57 -58 57 -3 0 -19 -26 -35 -57z"/>
</g>
</svg>
